<?xml version="1.0" standalone="no"?>
<!DOCTYPE svg PUBLIC "-//W3C//DTD SVG 20010904//EN"
 "http://www.w3.org/TR/2001/REC-SVG-20010904/DTD/svg10.dtd">
<svg version="1.0" xmlns="http://www.w3.org/2000/svg"
 width="842.000000pt" height="842.000000pt" viewBox="0 0 842.000000 842.000000"
 preserveAspectRatio="xMidYMid meet">
<metadata>
Created by potrace 1.11, written by Peter Selinger 2001-2013
</metadata>
<g transform="translate(0.000000,842.000000) scale(0.100000,-0.100000)"
fill="#000000" stroke="none">
<path d="M3997 8303 c-2 -1 -39 -5 -82 -8 -74 -5 -104 -8 -195 -20 -19 -3 -57
-7 -85 -10 -27 -3 -61 -7 -75 -10 -45 -9 -141 -26 -168 -30 -15 -2 -52 -11
-82 -19 -30 -8 -66 -17 -80 -20 -26 -4 -199 -54 -282 -80 -27 -8 -48 -12 -48
-8 0 4 -4 3 -8 -3 -6 -9 -87 -42 -122 -50 -14 -3 -106 -42 -235 -98 -88 -38
-308 -153 -385 -201 -41 -25 -83 -49 -92 -52 -10 -4 -18 -10 -18 -15 0 -5 -5
-9 -11 -9 -13 0 -208 -133 -299 -204 -36 -28 -69 -54 -75 -58 -5 -4 -22 -18
-37 -30 -14 -13 -50 -43 -80 -68 -163 -139 -399 -384 -528 -550 -19 -25 -37
-47 -40 -50 -10 -8 -183 -255 -205 -292 -11 -18 -30 -49 -42 -68 -146 -231
-300 -563 -398 -855 -36 -107 -40 -122 -50 -167 -2 -12 -11 -42 -19 -67 -9
-25 -18 -62 -21 -81 -3 -19 -11 -53 -16 -75 -14 -50 -17 -69 -25 -125 -3 -25
-9 -49 -12 -55 -4 -5 -7 -19 -8 -30 -2 -20 -12 -105 -19 -155 -2 -14 -6 -50
-10 -80 -3 -30 -8 -73 -12 -95 -9 -62 -11 -602 -2 -675 4 -36 10 -94 14 -130
12 -122 19 -172 35 -252 6 -31 13 -70 15 -85 7 -48 15 -87 25 -118 5 -16 11
-41 14 -55 8 -43 13 -62 36 -140 12 -41 26 -91 31 -110 4 -19 20 -66 35 -105
14 -38 27 -77 29 -85 2 -8 4 -16 5 -17 2 -2 3 -6 5 -10 1 -5 7 -21 14 -38 7
-16 24 -59 38 -95 46 -117 239 -501 256 -508 4 -2 7 -9 7 -15 0 -7 18 -38 40
-70 22 -31 40 -61 40 -65 0 -5 8 -17 18 -28 9 -11 22 -27 27 -37 31 -50 106
-156 120 -167 8 -7 15 -19 15 -26 0 -8 4 -14 8 -14 4 0 26 -24 47 -52 22 -29
52 -66 66 -83 15 -16 48 -55 74 -85 54 -63 221 -233 292 -300 117 -108 307
-263 366 -298 15 -9 27 -20 27 -24 0 -4 6 -8 14 -8 8 0 16 -4 18 -9 6 -16 347
-231 367 -231 5 0 11 -3 13 -7 3 -8 259 -136 333 -168 22 -9 54 -22 70 -30 98
-43 363 -135 390 -135 8 0 15 -5 15 -11 0 -5 4 -8 9 -5 5 3 37 -3 72 -15 35
-11 76 -22 90 -24 14 -2 55 -11 90 -20 35 -9 75 -18 89 -20 14 -2 26 -4 28 -6
3 -3 13 -4 77 -14 69 -10 78 -12 85 -15 3 -1 23 -3 45 -6 22 -2 56 -6 75 -9
255 -37 711 -39 975 -5 38 5 90 12 115 15 47 5 88 12 130 20 14 3 37 8 53 10
120 21 440 102 492 125 33 14 59 23 78 26 15 3 163 60 272 105 17 7 33 12 38
11 4 -1 7 3 7 9 0 5 5 7 10 4 6 -3 10 -1 10 4 0 6 4 11 9 11 5 0 20 4 33 9 13
5 27 9 32 9 5 0 12 4 15 9 3 4 60 35 126 68 66 33 122 63 125 66 3 3 28 18 55
34 28 15 69 40 93 56 24 16 45 29 47 29 18 0 342 240 446 330 166 143 326 304
454 453 28 33 55 64 60 70 6 7 33 41 60 77 28 36 56 71 63 78 6 8 17 23 23 34
9 17 54 81 87 123 4 6 25 39 47 75 21 36 43 67 47 68 4 2 8 10 8 17 0 8 6 20
13 27 42 46 210 382 280 558 52 133 96 260 89 260 -4 0 -2 4 4 8 10 7 80 239
90 300 3 15 9 41 14 57 6 17 11 42 12 58 1 15 6 27 11 27 4 0 6 3 4 8 -3 4 -1
32 5 62 5 30 11 65 13 77 2 12 6 34 9 50 3 15 8 51 11 78 2 28 7 59 9 70 2 11
7 63 11 115 4 52 9 109 11 125 6 41 6 452 0 495 -3 19 -8 75 -11 123 -3 48 -8
97 -10 109 -3 11 -7 46 -10 77 -3 31 -8 67 -11 81 -6 25 -8 34 -19 105 -12 69
-14 79 -19 100 -3 11 -14 58 -25 105 -20 87 -25 105 -60 225 -23 81 -69 215
-101 295 -12 30 -23 60 -25 65 -1 6 -10 27 -19 47 -9 21 -15 39 -14 40 1 2 -5
17 -14 33 -9 17 -46 90 -83 164 -292 592 -739 1120 -1269 1501 -119 85 -246
169 -268 176 -10 4 -18 10 -18 15 0 5 -4 9 -8 9 -4 0 -73 36 -152 80 -79 44
-150 80 -157 80 -7 0 -13 5 -13 10 0 6 -7 10 -15 10 -9 0 -41 13 -73 28 -31
16 -100 46 -152 66 -52 21 -106 42 -120 48 -14 5 -26 10 -27 9 -2 0 -18 6 -37
14 -18 8 -36 11 -40 8 -3 -4 -6 -1 -6 5 0 7 -3 11 -7 10 -5 -1 -39 8 -78 21
-76 24 -325 90 -365 96 -14 2 -72 13 -130 25 -58 12 -123 23 -145 25 -22 2
-40 4 -40 5 0 1 -16 3 -35 4 -19 2 -60 7 -90 10 -126 14 -216 18 -423 20 -120
1 -219 0 -220 -1z"/>
</g>
</svg>
