<?xml version="1.0" encoding="utf-8"?>
<!-- Generator: Adobe Illustrator 19.2.0, SVG Export Plug-In . SVG Version: 6.00 Build 0)  -->
<svg version="1.1" id="Layer_1" xmlns="http://www.w3.org/2000/svg" xmlns:xlink="http://www.w3.org/1999/xlink" x="0px" y="0px"
	 width="70px" height="70px" viewBox="0 0 70 70" style="enable-background:new 0 0 70 70;" xml:space="preserve">
<style type="text/css">
	.st0{fill:#FFFFFF;}
</style>
<g>
	<g>
		<path class="st0" d="M30.2,15.8c-13.8,0-25,11.2-25,25c0,13.8,11.2,25,25,25c13.8,0,25-11.2,25-25C55.2,27,44,15.8,30.2,15.8
			L30.2,15.8z M30.2,60.5c-10.9,0-19.7-8.8-19.7-19.7c0-10.9,8.8-19.7,19.7-19.7c10.9,0,19.7,8.8,19.7,19.7
			C49.9,51.7,41.1,60.5,30.2,60.5L30.2,60.5z M30.2,60.5"/>
		<path class="st0" d="M43.3,40H32V26.5c0-1.1-0.9-2.1-2.1-2.1c-1.1,0-2.1,0.9-2.1,2.1v15.6c0,1.1,0.9,2.1,2.1,2.1h13.3
			c1.1,0,2.1-0.9,2.1-2.1C45.3,41,44.4,40,43.3,40L43.3,40z M43.3,40"/>
	</g>
	<g>
		<path class="st0" d="M54.4,15.2h-5.8V12h5.8V6.2h3.3V12h5.8v3.3h-5.8V21h-3.3V15.2z"/>
	</g>
</g>
</svg>
