<?xml version="1.0" encoding="utf-8"?>
<!-- Generator: Adobe Illustrator 22.1.0, SVG Export Plug-In . SVG Version: 6.00 Build 0)  -->
<svg version="1.1" id="Layer_1" xmlns="http://www.w3.org/2000/svg" xmlns:xlink="http://www.w3.org/1999/xlink" x="0px" y="0px"
	 width="70px" height="70px" viewBox="0 0 70 70" style="enable-background:new 0 0 70 70;" xml:space="preserve">
<style type="text/css">
	.st0{fill:#FFFFFF;}
</style>
<g>
	<g>
		<path class="st0" d="M58.3,19.9L43.2,35l15.1,15.1c2.3,2.3,2.3,5.9,0,8.1c-1.1,1.1-2.6,1.7-4.1,1.7c-1.5,0-2.9-0.6-4.1-1.7
			L35,43.1L19.9,58.3c-1.1,1.1-2.6,1.7-4.1,1.7c-1.5,0-2.9-0.6-4.1-1.7c-2.3-2.3-2.3-5.9,0-8.1L26.9,35L11.7,19.9
			c-2.3-2.3-2.3-5.9,0-8.2c2.3-2.3,5.9-2.3,8.1,0L35,26.9l15.1-15.1c2.3-2.3,5.9-2.3,8.1,0C60.5,14,60.5,17.6,58.3,19.9L58.3,19.9z
			 M58.3,19.9"/>
	</g>
</g>
</svg>
