<?xml version="1.0" encoding="utf-8"?>
<!-- Generator: Adobe Illustrator 19.2.0, SVG Export Plug-In . SVG Version: 6.00 Build 0)  -->
<svg version="1.1" id="Layer_1" xmlns="http://www.w3.org/2000/svg" xmlns:xlink="http://www.w3.org/1999/xlink" x="0px" y="0px"
	 width="70px" height="70px" viewBox="0 0 70 70" style="enable-background:new 0 0 70 70;" xml:space="preserve">
<style type="text/css">
	.st0{fill:#FFFFFF;}
</style>
<g>
	<g>
		<g>
			<path class="st0" d="M40.3,17.9L35.9,14c-0.1-0.1-0.3-0.2-0.5-0.2c-0.2,0-0.4,0.1-0.5,0.2L18.8,32.4L13,24.8
				c-0.1-0.1-0.3-0.2-0.5-0.3c-0.2,0-0.4,0-0.5,0.1l-4.7,3.6c-0.3,0.2-0.4,0.7-0.1,1l10.6,14.1c0.1,0.2,0.3,0.3,0.5,0.3h0
				c0.2,0,0.4-0.1,0.5-0.2l21.5-24.4C40.6,18.6,40.6,18.2,40.3,17.9L40.3,17.9z M40.3,17.9"/>
		</g>
	</g>
	<rect x="33.7" y="49.2" class="st0" width="28" height="7"/>
</g>
</svg>
