<?xml version="1.0" encoding="utf-8"?>
<!-- Generator: Adobe Illustrator 19.2.0, SVG Export Plug-In . SVG Version: 6.00 Build 0)  -->
<svg version="1.1" id="Layer_1" xmlns="http://www.w3.org/2000/svg" xmlns:xlink="http://www.w3.org/1999/xlink" x="0px" y="0px"
	 width="70px" height="70px" viewBox="0 0 70 70" style="enable-background:new 0 0 70 70;" xml:space="preserve">
<style type="text/css">
	.st0{fill:#FFFFFF;}
</style>
<g>
	<path class="st0" d="M45,21.4V13c0-1.3-1.1-2.4-2.4-2.4H12.4c-1.3,0-2.4,1.1-2.4,2.4v34.5c0,0.9,0.5,1.8,1.3,2.2l18.6,9.6
		c0.8,0.4,1.8-0.2,1.8-1.1v-9.4h10.9c1.3,0,2.4-1.1,2.4-2.4V33h-4.9v9.7c0,0.7-0.5,1.2-1.2,1.2h-7.2V23.2c0-0.9-0.5-1.8-1.3-2.2
		l-11-5.6h19.5c0.7,0,1.2,0.5,1.2,1.2v4.8L45,21.4L45,21.4z M45,21.4"/>
	<path class="st0" d="M51.3,17.4l7.9,7.9c1,1,1,2.5,0,3.5l-7.9,7.9c-1,1-2.6,1.1-3.6,0c-1-1-0.9-2.6,0.1-3.6l3.6-3.5H37.5
		c-0.7,0-1.4-0.3-1.8-0.8c-1.1-1.2-0.9-3.4,0.6-4.2c0.4-0.2,0.8-0.3,1.2-0.3h13.9c0,0-3.5-3.5-3.6-3.5c-0.9-0.9-1.1-2.6-0.1-3.5
		C48.7,16.4,50.3,16.4,51.3,17.4L51.3,17.4z M51.3,17.4"/>
</g>
</svg>
