<?xml version="1.0" encoding="utf-8"?>
<!-- Generator: Adobe Illustrator 22.1.0, SVG Export Plug-In . SVG Version: 6.00 Build 0)  -->
<svg version="1.1" id="Layer_1" xmlns="http://www.w3.org/2000/svg" xmlns:xlink="http://www.w3.org/1999/xlink" x="0px" y="0px"
	 width="417.5px" height="421px" viewBox="0 0 417.5 421" style="enable-background:new 0 0 417.5 421;" xml:space="preserve">
<style type="text/css">
	.st0{fill:#F45714;}
	.st1{fill:#375D70;}
	.st2{fill:#0D2038;}
	.st3{fill:#C4C4C4;}
	.st4{fill:#FFFFF5;}
	.st5{fill:#E9F2EC;}
	.st6{fill:#3D4B5C;}
</style>
<path class="st0" d="M413.6,210.5c0,113.1-91.7,204.8-204.8,204.8S4,323.6,4,210.5S95.7,5.7,208.8,5.7S413.6,97.4,413.6,210.5
	L413.6,210.5z"/>
<path class="st0" d="M413.6,210.5c0,113.1-91.7,204.8-204.8,204.8S4,323.6,4,210.5S95.7,5.7,208.8,5.7S413.6,97.4,413.6,210.5
	L413.6,210.5z"/>
<g>
	<path class="st1" d="M350.4,294.9c0,4.4-3.6,8-8,8H75c-4.4,0-8-3.6-8-8V103.5c0-4.4,3.6-8,8-8h267.3c4.4,0,8,3.6,8,8L350.4,294.9
		L350.4,294.9z"/>
	<path class="st2" d="M342.4,95.5H208.6v230h67.4c0-0.2,0.1-0.3,0.1-0.5c0-5.3-20.5-10.9-48.2-12.5v-9.7h114.7c4.4,0,8-3.6,8-8
		V103.5C350.4,99.1,346.8,95.5,342.4,95.5L342.4,95.5z"/>
	<path class="st1" d="M208.4,95.5h-133c-4.5,0-8.2,3.6-8.2,8v191.3c0,4.4,3.7,8,8.2,8h119.7v9.9c-26.6,2-45.8,7.6-45.8,12.3
		c0,0.2,0,0.3,0.1,0.5h59.1L208.4,95.5L208.4,95.5z"/>
	<rect x="93.8" y="122.3" class="st3" width="229.8" height="153.8"/>
	<rect x="107.3" y="135.8" class="st4" width="202.9" height="126.9"/>
	<rect x="208.1" y="135.8" class="st5" width="102.1" height="126.9"/>
	<path class="st6" d="M342.4,288.3c0,3.9-3.2,7.1-7.1,7.1c-3.9,0-7.1-3.2-7.1-7.1s3.2-7.1,7.1-7.1
		C339.2,281.3,342.4,284.4,342.4,288.3L342.4,288.3z"/>
	<path class="st4" d="M338.3,288.3c0,1.6-1.3,3.1-3.1,3.1c-1.6,0-3.1-1.3-3.1-3.1c0-1.6,1.3-3.1,3.1-3.1
		C337,285.3,338.3,286.6,338.3,288.3L338.3,288.3z"/>
</g>
</svg>
